<svg xmlns="http://www.w3.org/2000/svg" xmlns:xlink="http://www.w3.org/1999/xlink" contentStyleType="text/css" height="636px" preserveAspectRatio="none" style="width:606px;height:636px;background:#FFFFFF;" version="1.1" viewBox="0 0 606 636" width="606px" zoomAndPan="magnify"><defs/><g><!--cluster 5e0bfe3e3e1cf5f82a532eb269d93342--><g id="cluster_5e0bfe3e3e1cf5f82a532eb269d93342"><polygon fill="none" points="16,16,26,6,198,6,198,517.78,188,527.78,16,527.78,16,16" style="stroke:#181818;stroke-width:1.0;"/><line style="stroke:#181818;stroke-width:1.0;" x1="188" x2="198" y1="16" y2="6"/><line style="stroke:#181818;stroke-width:1.0;" x1="16" x2="188" y1="16" y2="16"/><line style="stroke:#181818;stroke-width:1.0;" x1="188" x2="188" y1="16" y2="527.78"/><text fill="#000000" font-family="sans-serif" font-size="14" font-weight="bold" lengthAdjust="spacing" textLength="56" x="75" y="31.9951">Stories</text></g><!--cluster ef0dc999175a171be87899d3c5d7873e--><g id="cluster_ef0dc999175a171be87899d3c5d7873e"><polygon fill="none" points="284,16,294,6,538,6,538,517.78,528,527.78,284,527.78,284,16" style="stroke:#181818;stroke-width:1.0;"/><line style="stroke:#181818;stroke-width:1.0;" x1="528" x2="538" y1="16" y2="6"/><line style="stroke:#181818;stroke-width:1.0;" x1="284" x2="528" y1="16" y2="16"/><line style="stroke:#181818;stroke-width:1.0;" x1="528" x2="528" y1="16" y2="527.78"/><text fill="#000000" font-family="sans-serif" font-size="14" font-weight="bold" lengthAdjust="spacing" textLength="47" x="383.5" y="31.9951">Pg_db</text></g><!--entity 69479b784c504da6f5ce03d887ec59a9--><g id="elem_69479b784c504da6f5ce03d887ec59a9"><rect fill="#F1F1F1" height="111.4844" rx="2.5" ry="2.5" style="stroke:#181818;stroke-width:0.5;" width="151" x="31.5" y="46"/><rect fill="#F1F1F1" height="10" style="stroke:#181818;stroke-width:0.5;" width="15" x="162.5" y="51"/><rect fill="#F1F1F1" height="2" style="stroke:#181818;stroke-width:0.5;" width="4" x="160.5" y="53"/><rect fill="#F1F1F1" height="2" style="stroke:#181818;stroke-width:0.5;" width="4" x="160.5" y="57"/><text fill="#000000" font-family="sans-serif" font-size="14" font-weight="bold" lengthAdjust="spacing" textLength="67" x="46.5" y="78.9951">backend</text><text fill="#000000" font-family="sans-serif" font-size="14" lengthAdjust="spacing" textLength="4" x="46.5" y="95.292">&#160;</text><text fill="#000000" font-family="sans-serif" font-size="14" lengthAdjust="spacing" textLength="111" x="46.5" y="111.5889">image: backend</text><text fill="#000000" font-family="sans-serif" font-size="14" lengthAdjust="spacing" textLength="99" x="46.5" y="127.8857">restart: always</text><text fill="#000000" font-family="sans-serif" font-size="14" lengthAdjust="spacing" textLength="4" x="46.5" y="144.1826">&#160;</text></g><!--entity 13f116706bc0db61449cef31220bc763--><g id="elem_13f116706bc0db61449cef31220bc763"><ellipse cx="155" cy="247.49" fill="#F1F1F1" rx="8" ry="8" style="stroke:#181818;stroke-width:0.5;"/><text fill="#000000" font-family="sans-serif" font-size="14" lengthAdjust="spacing" textLength="36" x="137" y="277.4851">8000</text></g><!--entity 4db9e64e95e1ebd6b005fcce13f954c5--><g id="elem_4db9e64e95e1ebd6b005fcce13f954c5"><rect fill="#F1F1F1" height="39.2969" rx="2.5" ry="2.5" style="stroke:#181818;stroke-width:0.5;" width="61" x="61.5" y="472.49"/><polygon fill="#F1F1F1" points="105.5,477.49,105.5,491.49,117.5,491.49,117.5,483.49,111.5,477.49,105.5,477.49" style="stroke:#181818;stroke-width:0.5;"/><line style="stroke:#181818;stroke-width:0.5;" x1="111.5" x2="111.5" y1="477.49" y2="483.49"/><line style="stroke:#181818;stroke-width:0.5;" x1="117.5" x2="111.5" y1="483.49" y2="483.49"/><text fill="#000000" font-family="sans-serif" font-size="14" lengthAdjust="spacing" textLength="31" x="71.5" y="498.4851">/app</text></g><!--entity 6549af1a20edb7a428009fa55c11b869--><g id="elem_6549af1a20edb7a428009fa55c11b869"><rect fill="#F1F1F1" height="111.4844" rx="2.5" ry="2.5" style="stroke:#181818;stroke-width:0.5;" width="222" x="300" y="46"/><rect fill="#F1F1F1" height="10" style="stroke:#181818;stroke-width:0.5;" width="15" x="502" y="51"/><rect fill="#F1F1F1" height="2" style="stroke:#181818;stroke-width:0.5;" width="4" x="500" y="53"/><rect fill="#F1F1F1" height="2" style="stroke:#181818;stroke-width:0.5;" width="4" x="500" y="57"/><text fill="#000000" font-family="sans-serif" font-size="14" font-weight="bold" lengthAdjust="spacing" textLength="47" x="315" y="78.9951">pg_db</text><text fill="#000000" font-family="sans-serif" font-size="14" lengthAdjust="spacing" textLength="4" x="315" y="95.292">&#160;</text><text fill="#000000" font-family="sans-serif" font-size="14" lengthAdjust="spacing" textLength="182" x="315" y="111.5889">image: postgres:13-alpine</text><text fill="#000000" font-family="sans-serif" font-size="14" lengthAdjust="spacing" textLength="163" x="315" y="127.8857">restart: unless-stopped</text><text fill="#000000" font-family="sans-serif" font-size="14" lengthAdjust="spacing" textLength="4" x="315" y="144.1826">&#160;</text></g><!--entity 6ffcf18a9bd574f3ba609c0ab01e58c7--><g id="elem_6ffcf18a9bd574f3ba609c0ab01e58c7"><ellipse cx="484" cy="247.49" fill="#F1F1F1" rx="8" ry="8" style="stroke:#181818;stroke-width:0.5;"/><text fill="#000000" font-family="sans-serif" font-size="14" lengthAdjust="spacing" textLength="36" x="466" y="277.4851">5432</text></g><!--entity 0ce84f085e1a6199c32ea70cb34669dc--><g id="elem_0ce84f085e1a6199c32ea70cb34669dc"><rect fill="#F1F1F1" height="39.2969" rx="2.5" ry="2.5" style="stroke:#181818;stroke-width:0.5;" width="189" x="316.5" y="472.49"/><polygon fill="#F1F1F1" points="488.5,477.49,488.5,491.49,500.5,491.49,500.5,483.49,494.5,477.49,488.5,477.49" style="stroke:#181818;stroke-width:0.5;"/><line style="stroke:#181818;stroke-width:0.5;" x1="494.5" x2="494.5" y1="477.49" y2="483.49"/><line style="stroke:#181818;stroke-width:0.5;" x1="500.5" x2="494.5" y1="483.49" y2="483.49"/><text fill="#000000" font-family="sans-serif" font-size="14" lengthAdjust="spacing" textLength="159" x="326.5" y="498.4851">/var/lib/postgresql/data</text></g><!--entity 1624c420083928ef3e240dd88f2e52f0--><g id="elem_1624c420083928ef3e240dd88f2e52f0"><ellipse cx="241" cy="382.49" fill="#F1F1F1" rx="8" ry="8" style="stroke:#181818;stroke-width:0.5;"/><text fill="#000000" font-family="sans-serif" font-size="14" lengthAdjust="spacing" textLength="36" x="223" y="412.4851">8000</text></g><!--entity e771ba177215eb3092edcb43cf53c8a7--><g id="elem_e771ba177215eb3092edcb43cf53c8a7"><ellipse cx="581" cy="382.49" fill="#F1F1F1" rx="8" ry="8" style="stroke:#181818;stroke-width:0.5;"/><text fill="#000000" font-family="sans-serif" font-size="14" lengthAdjust="spacing" textLength="36" x="563" y="412.4851">5432</text></g><!--entity 58b9e70b65a77700ba66e9c64d6b9f89--><g id="elem_58b9e70b65a77700ba66e9c64d6b9f89"><rect fill="#F1F1F1" height="39.2969" rx="2.5" ry="2.5" style="stroke:#181818;stroke-width:0.5;" width="34" x="75" y="590.78"/><polygon fill="#F1F1F1" points="92,595.78,92,609.78,104,609.78,104,601.78,98,595.78,92,595.78" style="stroke:#181818;stroke-width:0.5;"/><line style="stroke:#181818;stroke-width:0.5;" x1="98" x2="98" y1="595.78" y2="601.78"/><line style="stroke:#181818;stroke-width:0.5;" x1="104" x2="98" y1="601.78" y2="601.78"/><text fill="#000000" font-family="sans-serif" font-size="14" lengthAdjust="spacing" textLength="4" x="85" y="616.7751">.</text></g><!--entity fafc8f4a9e2367f6799899b910885049--><g id="elem_fafc8f4a9e2367f6799899b910885049"><rect fill="#F1F1F1" height="39.2969" rx="2.5" ry="2.5" style="stroke:#181818;stroke-width:0.5;" width="127" x="347.5" y="590.78"/><polygon fill="#F1F1F1" points="457.5,595.78,457.5,609.78,469.5,609.78,469.5,601.78,463.5,595.78,457.5,595.78" style="stroke:#181818;stroke-width:0.5;"/><line style="stroke:#181818;stroke-width:0.5;" x1="463.5" x2="463.5" y1="595.78" y2="601.78"/><line style="stroke:#181818;stroke-width:0.5;" x1="469.5" x2="463.5" y1="601.78" y2="601.78"/><text fill="#000000" font-family="sans-serif" font-size="14" lengthAdjust="spacing" textLength="97" x="357.5" y="616.7751">stories_pg_db</text></g><!--link 69479b784c504da6f5ce03d887ec59a9 to 13f116706bc0db61449cef31220bc763--><g id="link_69479b784c504da6f5ce03d887ec59a9_13f116706bc0db61449cef31220bc763"><path codeLine="28" d="M125.42,157.91 C135.68,188.63 147.38,223.66 152.44,238.82 " fill="none" id="69479b784c504da6f5ce03d887ec59a9-13f116706bc0db61449cef31220bc763" style="stroke:#181818;stroke-width:1.0;"/></g><!--link 13f116706bc0db61449cef31220bc763 to 1624c420083928ef3e240dd88f2e52f0--><g id="link_13f116706bc0db61449cef31220bc763_1624c420083928ef3e240dd88f2e52f0"><path codeLine="29" d="M160.12,256.41 C175.45,280.12 220.86,350.34 236.01,373.77 " fill="none" id="13f116706bc0db61449cef31220bc763-1624c420083928ef3e240dd88f2e52f0" style="stroke:#181818;stroke-width:1.0;"/></g><!--link 4db9e64e95e1ebd6b005fcce13f954c5 to 58b9e70b65a77700ba66e9c64d6b9f89--><g id="link_4db9e64e95e1ebd6b005fcce13f954c5_58b9e70b65a77700ba66e9c64d6b9f89"><path codeLine="30" d="M92,512.08 C92,533.7 92,568.87 92,590.5 " fill="none" id="4db9e64e95e1ebd6b005fcce13f954c5-58b9e70b65a77700ba66e9c64d6b9f89" style="stroke:#181818;stroke-width:1.0;"/><text fill="#000000" font-family="sans-serif" font-size="13" lengthAdjust="spacing" textLength="14" x="93" y="556.8469">rw</text></g><!--link 69479b784c504da6f5ce03d887ec59a9 to 4db9e64e95e1ebd6b005fcce13f954c5--><g id="link_69479b784c504da6f5ce03d887ec59a9_4db9e64e95e1ebd6b005fcce13f954c5"><path codeLine="31" d="M104.87,157.98 C101.45,246.36 95.1616,409.3745 92.9716,466.0645 " fill="none" id="69479b784c504da6f5ce03d887ec59a9-to-4db9e64e95e1ebd6b005fcce13f954c5" style="stroke:#181818;stroke-width:1.0;stroke-dasharray:7.0,7.0;"/><polygon fill="#181818" points="92.74,472.06,97.0844,463.2211,92.933,467.0637,89.0904,462.9123,92.74,472.06" style="stroke:#181818;stroke-width:1.0;"/><text fill="#000000" font-family="sans-serif" font-size="13" lengthAdjust="spacing" textLength="23" x="100" y="319.5569">use</text></g><!--link 6549af1a20edb7a428009fa55c11b869 to 6ffcf18a9bd574f3ba609c0ab01e58c7--><g id="link_6549af1a20edb7a428009fa55c11b869_6ffcf18a9bd574f3ba609c0ab01e58c7"><path codeLine="32" d="M439.01,157.91 C454.62,188.63 472.41,223.66 480.11,238.82 " fill="none" id="6549af1a20edb7a428009fa55c11b869-6ffcf18a9bd574f3ba609c0ab01e58c7" style="stroke:#181818;stroke-width:1.0;"/></g><!--link 6ffcf18a9bd574f3ba609c0ab01e58c7 to e771ba177215eb3092edcb43cf53c8a7--><g id="link_6ffcf18a9bd574f3ba609c0ab01e58c7_e771ba177215eb3092edcb43cf53c8a7"><path codeLine="33" d="M489.78,256.41 C507.07,280.12 558.28,350.34 575.37,373.77 " fill="none" id="6ffcf18a9bd574f3ba609c0ab01e58c7-e771ba177215eb3092edcb43cf53c8a7" style="stroke:#181818;stroke-width:1.0;"/></g><!--link 0ce84f085e1a6199c32ea70cb34669dc to fafc8f4a9e2367f6799899b910885049--><g id="link_0ce84f085e1a6199c32ea70cb34669dc_fafc8f4a9e2367f6799899b910885049"><path codeLine="34" d="M411,512.08 C411,533.7 411,568.87 411,590.5 " fill="none" id="0ce84f085e1a6199c32ea70cb34669dc-fafc8f4a9e2367f6799899b910885049" style="stroke:#181818;stroke-width:1.0;"/><text fill="#000000" font-family="sans-serif" font-size="13" lengthAdjust="spacing" textLength="14" x="412" y="556.8469">rw</text></g><!--link 6549af1a20edb7a428009fa55c11b869 to 0ce84f085e1a6199c32ea70cb34669dc--><g id="link_6549af1a20edb7a428009fa55c11b869_0ce84f085e1a6199c32ea70cb34669dc"><path codeLine="35" d="M411,157.98 C411,246.36 411,409.37 411,466.06 " fill="none" id="6549af1a20edb7a428009fa55c11b869-to-0ce84f085e1a6199c32ea70cb34669dc" style="stroke:#181818;stroke-width:1.0;stroke-dasharray:7.0,7.0;"/><polygon fill="#181818" points="411,472.06,415,463.06,411,467.06,407,463.06,411,472.06" style="stroke:#181818;stroke-width:1.0;"/><text fill="#000000" font-family="sans-serif" font-size="13" lengthAdjust="spacing" textLength="23" x="412" y="319.5569">use</text></g><!--SRC=[XPFDRjim48JlUWh1fzQ0xUK_ruS-Gu4UYo9Oaaj3Y2ofbjAqAFhkPMGdTNeXT2EumvrlHjJtu_Ev-zaDfsOO4xURByjuwNZUj3ItXY5aLkKJCPli9HabEKYB2PNIiltTj74yJ-F0mz9Qr0w3ypeQq8biDf519UyTHuE4xTTckmqK7tb8sstJT6SwyR6zdJGNdXUwBCUM-cVwDJVDj-R3ntRZ0M1THgWiX7LWGuGKhD0Q8sSbf8GGdLLD6UuonQNT76YQrXcT0hBLZ8O5XsG3WCanSj52K_Pi_jnSVpuzfB2ES8OK4L4uGyA9mDvvnAIYISuxnVzvDXef2vB0AJZIigoBcOo9GWHlhvwd5_4xnzCuBwTYzoZKZlgf6_YV-QUXvtdUpSiuJPnU8HYjvBgTpJbcuGb3Cavd5SW2Hg00WesFxXx23xeS-YuSNf_xtXyIBRJgG6IlC_Z2XQn0Z2LNSX23qhQa6mkOz_2jr55B0AzG-eATfOPKiisIZSpmVajs1LoXvwGm71IWv1I3LgL4Adgwtt9_BPelEJa8rf1p3g3OiepHwX8PPezt0_Erdm_JMsAPSlHP4x9KrcNh44jY0GLuNvg8JRMOkxIhrwjsuQfIurHhvAfImz4UsytbULCtjj-d_VvJzJTuqNkQkGZMwlooNRM3jGkhIhKZjOgkAhNitqZLZDr8LH-zaVeB]--></g></svg>